<?xml version="1.0" standalone="no"?>
<!DOCTYPE svg PUBLIC "-//W3C//DTD SVG 20010904//EN"
 "http://www.w3.org/TR/2001/REC-SVG-20010904/DTD/svg10.dtd">
<svg version="1.0" xmlns="http://www.w3.org/2000/svg"
 width="299.000000pt" height="318.000000pt" viewBox="0 0 299.000000 318.000000"
 preserveAspectRatio="xMidYMid meet">

<g transform="translate(0.000000,318.000000) scale(0.100000,-0.100000)"
fill="#000000" stroke="none">
<path d="M1432 2800 c-12 -5 -34 -20 -48 -33 -54 -50 -113 -72 -199 -73 -103
-1 -175 -33 -257 -117 -47 -48 -58 -65 -58 -92 0 -18 -10 -54 -21 -81 -19 -43
-21 -55 -11 -105 7 -37 7 -71 1 -99 -6 -28 -6 -61 0 -94 14 -75 31 -202 37
-276 3 -36 8 -86 11 -112 5 -48 -9 -68 -22 -29 -7 22 -45 59 -45 44 0 -6 7
-16 16 -24 24 -20 40 -59 54 -131 7 -38 15 -68 19 -68 4 0 8 77 9 171 3 224
35 417 80 487 21 33 93 72 133 72 19 0 158 -2 309 -4 346 -5 405 -18 445 -96
29 -57 56 -261 58 -445 3 -190 13 -224 34 -111 13 71 24 99 57 135 14 16 16
22 6 19 -8 -2 -25 -22 -38 -44 l-23 -39 4 58 c2 33 8 62 14 65 6 4 14 27 18
52 4 25 13 67 21 95 10 35 13 75 8 135 -5 65 -2 96 10 130 20 58 20 117 0 155
-9 17 -26 49 -38 73 -12 23 -46 67 -75 97 l-54 55 26 28 c46 47 32 99 -16 62
-36 -29 -62 -25 -115 16 -54 41 -104 64 -139 64 -13 0 -54 16 -90 35 -69 37
-83 40 -121 25z"/>
<path d="M1075 1936 c-50 -23 -71 -43 -59 -56 7 -7 21 -6 49 6 38 16 46 16
200 2 21 -2 30 2 33 14 8 40 -154 65 -223 34z"/>
<path d="M1602 1935 c-23 -10 -32 -20 -30 -32 4 -19 5 -19 120 -7 39 4 71 2
102 -9 45 -15 65 -10 50 14 -26 43 -175 63 -242 34z"/>
<path d="M1121 1790 c-36 -9 -82 -39 -89 -58 -2 -7 12 -3 31 8 l35 21 -5 -39
c-4 -31 0 -44 18 -65 28 -31 96 -51 86 -24 -6 16 14 30 43 31 8 1 16 10 18 21
6 33 21 41 37 19 8 -10 15 -14 15 -8 0 18 -39 63 -68 78 -38 19 -81 24 -121
16z m39 -46 c0 -14 -21 -19 -33 -7 -9 9 13 34 24 27 5 -3 9 -12 9 -20z"/>
<path d="M1662 1790 c-35 -8 -86 -50 -104 -85 -9 -17 -7 -16 16 4 l26 24 0
-24 c0 -29 23 -64 51 -79 22 -12 63 -4 54 10 -7 11 29 31 47 28 9 -2 13 11 13
45 0 26 3 47 7 47 3 0 20 -12 37 -26 35 -29 43 -18 9 13 -45 40 -100 55 -156
43z m8 -45 c0 -8 -9 -15 -20 -15 -11 0 -20 7 -20 15 0 8 9 15 20 15 11 0 20
-7 20 -15z"/>
<path d="M2062 1704 c-1 -28 -4 -67 -7 -85 -5 -31 -5 -32 5 -9 6 13 9 51 7 85
l-3 60 -2 -51z"/>
<path d="M2041 1554 c0 -11 3 -14 6 -6 3 7 2 16 -1 19 -3 4 -6 -2 -5 -13z"/>
<path d="M2031 1514 c0 -11 3 -14 6 -6 3 7 2 16 -1 19 -3 4 -6 -2 -5 -13z"/>
<path d="M2143 1390 c0 -41 2 -58 4 -37 2 20 2 54 0 75 -2 20 -4 3 -4 -38z"/>
<path d="M2127 1141 c-5 -90 -6 -165 -4 -168 7 -7 19 214 15 277 -2 30 -7 -19
-11 -109z"/>
<path d="M2111 845 c-2 -139 -8 -162 -45 -175 -18 -6 -86 -8 -161 -6 -72 3
-352 5 -622 5 -585 1 -533 -12 -533 132 l0 91 -24 -29 c-42 -50 -85 -137 -88
-178 l-3 -40 795 0 795 0 -1 33 c-2 34 -44 124 -75 157 -10 12 -23 39 -28 60
-8 35 -9 29 -10 -50z"/>
</g>
</svg>
